<svg width="73" height="29" viewBox="0 0 73 29" fill="none" xmlns="http://www.w3.org/2000/svg">
<path fill-rule="evenodd" clip-rule="evenodd" d="M17.6626 18.9366L16.9133 19.8622C16.3593 19.2702 15.5666 18.9043 14.7954 18.9043C13.2751 18.9043 12.0804 20.0668 12.0804 21.5523C12.0804 23.0377 13.2751 24.2109 14.7954 24.2109C15.5557 24.2109 16.3376 23.8664 16.9133 23.3175L17.6735 24.157C16.9023 24.9106 15.8055 25.3949 14.7304 25.3949C12.5039 25.3949 10.7771 23.7265 10.7771 21.5629C10.7771 19.4209 12.5256 17.7742 14.7737 17.7742C15.8489 17.7742 16.9242 18.2155 17.6626 18.9366" fill="#FEFEFE"/>
<path fill-rule="evenodd" clip-rule="evenodd" d="M22.3537 23.3283V22.8009H20.7898C19.9752 22.8009 19.5951 23.016 19.5951 23.5651C19.5951 24.0817 20.0187 24.4153 20.7137 24.4153C21.6044 24.4153 22.2885 23.9525 22.3537 23.3283V23.3283ZM22.3645 24.6414C21.9519 25.1474 21.2893 25.3949 20.4531 25.3949C19.2041 25.3949 18.4222 24.6307 18.4222 23.6187C18.4222 22.5747 19.215 21.9074 20.6052 21.8967H22.3537V21.7245C22.3537 21.0032 21.8867 20.5727 20.9744 20.5727C20.4205 20.5727 19.845 20.7664 19.2693 21.1539L18.7589 20.2929C19.5625 19.8191 20.1491 19.5716 21.2459 19.5716C22.7338 19.5716 23.5699 20.3251 23.581 21.5846L23.5917 25.3411H22.3645V24.6414Z" fill="#FEFEFE"/>
<path fill-rule="evenodd" clip-rule="evenodd" d="M26.5125 20.7557C26.9035 19.9806 27.5986 19.5716 28.5108 19.5716V20.7557C27.3487 20.6911 26.6103 21.3691 26.5125 22.3487V25.3411H25.2635V19.6146H26.5125V20.7557Z" fill="#FEFEFE"/>
<path fill-rule="evenodd" clip-rule="evenodd" d="M33.5389 22.0473C33.4954 21.1217 32.8764 20.5619 31.9315 20.5619C31.0193 20.5619 30.3785 21.1324 30.2373 22.0473H33.5389ZM34.625 22.9515H30.259C30.4545 23.8341 31.1388 24.3831 32.051 24.3831C32.681 24.3831 33.2565 24.1462 33.68 23.7157L34.3426 24.4154C33.7778 25.0289 32.9525 25.3841 31.9532 25.3841C30.1721 25.3841 28.9991 24.2109 28.9991 22.4886C28.9991 20.7556 30.2047 19.5824 31.9207 19.5715C33.9515 19.5715 34.777 20.8849 34.625 22.9515V22.9515Z" fill="#FEFEFE"/>
<mask id="mask0_2_599" style="mask-type:alpha" maskUnits="userSpaceOnUse" x="0" y="0" width="73" height="29">
<path fill-rule="evenodd" clip-rule="evenodd" d="M0 28.8789H72.952V0.149475H0V28.8789Z" fill="white"/>
</mask>
<g mask="url(#mask0_2_599)">
<path fill-rule="evenodd" clip-rule="evenodd" d="M36.0037 25.341H37.2852V17.8064H36.0037V25.341Z" fill="#FEFEFE"/>
<path fill-rule="evenodd" clip-rule="evenodd" d="M44.7351 21.7783V25.3411H43.4862V22.1227C43.4862 21.2616 42.9648 20.7343 42.0961 20.7343C41.1403 20.7449 40.5429 21.4014 40.4561 22.2949V25.3411H39.2072V19.6146H40.4561V20.7126C40.8688 19.9161 41.6073 19.5716 42.5848 19.5716C43.9315 19.5716 44.7351 20.4112 44.7351 21.7783" fill="#FEFEFE"/>
<path fill-rule="evenodd" clip-rule="evenodd" d="M50.6642 22.4994C50.6642 21.3907 49.9365 20.6157 48.894 20.6157C47.8513 20.6157 47.1236 21.4014 47.1127 22.4994C47.1236 23.5864 47.8405 24.3615 48.894 24.3615C49.9365 24.3615 50.6642 23.5864 50.6642 22.4994V22.4994ZM51.9131 25.3411H50.6642V24.3615C50.2516 25.029 49.5564 25.3949 48.6332 25.3949C46.9717 25.3949 45.8639 24.2001 45.8639 22.4563C45.8639 20.7341 46.9826 19.561 48.6116 19.561C49.5456 19.561 50.2406 19.9375 50.6642 20.605V17.3543H51.9131V25.3411Z" fill="#FEFEFE"/>
<path fill-rule="evenodd" clip-rule="evenodd" d="M57.8096 22.0473C57.7662 21.1217 57.147 20.5619 56.2023 20.5619C55.2901 20.5619 54.6492 21.1324 54.508 22.0473H57.8096ZM58.8956 22.9515H54.5298C54.7252 23.8341 55.4095 24.3831 56.3217 24.3831C56.9517 24.3831 57.5273 24.1462 57.9508 23.7157L58.6132 24.4154C58.0485 25.0289 57.2231 25.3841 56.224 25.3841C54.4429 25.3841 53.2699 24.2109 53.2699 22.4886C53.2699 20.7556 54.4755 19.5824 56.1914 19.5715C58.2223 19.5715 59.0478 20.8849 58.8956 22.9515V22.9515Z" fill="#FEFEFE"/>
<path fill-rule="evenodd" clip-rule="evenodd" d="M64.1949 22.0473C64.1514 21.1217 63.5324 20.5619 62.5877 20.5619C61.6753 20.5619 61.0346 21.1324 60.8933 22.0473H64.1949ZM65.281 22.9515H60.9152C61.1106 23.8341 61.7948 24.3831 62.7071 24.3831C63.337 24.3831 63.9125 24.1462 64.3362 23.7157L64.9986 24.4154C64.4339 25.0289 63.6085 25.3841 62.6092 25.3841C60.8283 25.3841 59.6552 24.2109 59.6552 22.4886C59.6552 20.7556 60.8609 19.5824 62.5767 19.5715C64.6075 19.5715 65.433 20.8849 65.281 22.9515V22.9515Z" fill="#FEFEFE"/>
<path fill-rule="evenodd" clip-rule="evenodd" d="M70.841 22.4994C70.841 21.3907 70.1134 20.6157 69.0708 20.6157C68.0282 20.6157 67.3005 21.4014 67.2896 22.4994C67.3005 23.5864 68.0172 24.3615 69.0708 24.3615C70.1134 24.3615 70.841 23.5864 70.841 22.4994V22.4994ZM72.0898 25.3411H70.841V24.3615C70.4283 25.029 69.7332 25.3949 68.8101 25.3949C67.1485 25.3949 66.0406 24.2001 66.0406 22.4563C66.0406 20.7341 67.1593 19.561 68.7884 19.561C69.7223 19.561 70.4173 19.9375 70.841 20.605V17.3543H72.0898V25.3411Z" fill="#FEFEFE"/>
</g>
<path fill-rule="evenodd" clip-rule="evenodd" d="M36.8132 26.8626V27.175H37.4779V28.8505H37.8505V27.175H38.5152V26.8626H36.8132Z" fill="#FEFEFE"/>
<path fill-rule="evenodd" clip-rule="evenodd" d="M40.2689 27.9814V28.8504H39.9108V28.027C39.9108 27.7572 39.776 27.6265 39.5469 27.6265C39.2918 27.6265 39.1201 27.7798 39.1201 28.0838V28.8504H38.7618V26.7434H39.1201V27.5101C39.2374 27.3851 39.4179 27.3169 39.63 27.3169C39.9967 27.3169 40.2689 27.5241 40.2689 27.9814" fill="#FEFEFE"/>
<path fill-rule="evenodd" clip-rule="evenodd" d="M40.9682 27.9702H41.8364C41.8077 27.7515 41.6387 27.6009 41.4038 27.6009C41.1717 27.6009 41.0028 27.7486 40.9682 27.9702M42.1717 28.2058H40.9713C41.0141 28.4273 41.2004 28.5693 41.4669 28.5693C41.6387 28.5693 41.7733 28.5153 41.8824 28.4046L42.0742 28.6233C41.9367 28.7852 41.7218 28.8702 41.4583 28.8702C40.9455 28.8702 40.613 28.5437 40.613 28.0922C40.613 27.6407 40.9482 27.3169 41.4038 27.3169C41.8509 27.3169 42.1774 27.6265 42.1774 28.1007C42.1774 28.1291 42.1745 28.1718 42.1717 28.2058" fill="#FEFEFE"/>
<path fill-rule="evenodd" clip-rule="evenodd" d="M45.1291 26.8626V28.8505H44.7565V27.9985H43.7193V28.8505H43.3469V26.8626H43.7193V27.6833H44.7565V26.8626H45.1291Z" fill="#FEFEFE"/>
<path fill-rule="evenodd" clip-rule="evenodd" d="M45.8629 27.9702H46.7311C46.7023 27.7515 46.5333 27.6009 46.2985 27.6009C46.0664 27.6009 45.8973 27.7486 45.8629 27.9702M47.0664 28.2058H45.8658C45.9088 28.4273 46.0949 28.5693 46.3614 28.5693C46.5333 28.5693 46.668 28.5153 46.7769 28.4046L46.9689 28.6233C46.8314 28.7852 46.6164 28.8702 46.3528 28.8702C45.84 28.8702 45.5076 28.5437 45.5076 28.0922C45.5076 27.6407 45.8427 27.3169 46.2985 27.3169C46.7454 27.3169 47.0721 27.6265 47.0721 28.1007C47.0721 28.1291 47.0691 28.1718 47.0664 28.2058" fill="#FEFEFE"/>
<path fill-rule="evenodd" clip-rule="evenodd" d="M48.2957 28.3761V28.2H47.9261C47.6826 28.2 47.6166 28.2911 47.6166 28.4017C47.6166 28.5295 47.7255 28.6119 47.9089 28.6119C48.0838 28.6119 48.2356 28.5324 48.2957 28.3761M48.6539 27.9616V28.8505H48.3157V28.6658C48.2298 28.7965 48.0637 28.8703 47.8343 28.8703C47.4848 28.8703 47.2642 28.68 47.2642 28.4161C47.2642 28.1631 47.4361 27.9645 47.9003 27.9645H48.2957V27.9417C48.2957 27.7344 48.1696 27.6123 47.9147 27.6123C47.7427 27.6123 47.5651 27.6692 47.4504 27.7627L47.31 27.5043C47.4734 27.3794 47.7112 27.3169 47.9577 27.3169C48.399 27.3169 48.6539 27.5242 48.6539 27.9616" fill="#FEFEFE"/>
<path fill-rule="evenodd" clip-rule="evenodd" d="M49.9979 27.3169V27.6549C49.9664 27.6492 49.9406 27.6464 49.9148 27.6464C49.6427 27.6464 49.4708 27.8054 49.4708 28.115V28.8505H49.1125V27.334H49.4536V27.5555C49.5566 27.3965 49.743 27.3169 49.9979 27.3169" fill="#FEFEFE"/>
<path fill-rule="evenodd" clip-rule="evenodd" d="M51.279 28.7681C51.193 28.8363 51.064 28.8704 50.9351 28.8704C50.5998 28.8704 50.4079 28.6943 50.4079 28.3593V27.6293H50.1558V27.3453H50.4079V26.999H50.7662V27.3453H51.1758V27.6293H50.7662V28.3506C50.7662 28.4983 50.8407 28.5778 50.9781 28.5778C51.0526 28.5778 51.1242 28.5579 51.1787 28.5155L51.279 28.7681Z" fill="#FEFEFE"/>
<path fill-rule="evenodd" clip-rule="evenodd" d="M53.5084 28.0922C53.5084 27.8027 53.3135 27.6179 53.0527 27.6179C52.795 27.6179 52.6001 27.8027 52.6001 28.0922C52.6001 28.3818 52.795 28.5665 53.0527 28.5665C53.3135 28.5665 53.5084 28.3818 53.5084 28.0922M52.239 28.0922C52.239 27.6379 52.5827 27.3168 53.0527 27.3168C53.5284 27.3168 53.8694 27.6379 53.8694 28.0922C53.8694 28.5466 53.5284 28.8703 53.0527 28.8703C52.5827 28.8703 52.239 28.5466 52.239 28.0922" fill="#FEFEFE"/>
<path fill-rule="evenodd" clip-rule="evenodd" d="M54.6088 27.2544V27.3453H55.0301V27.6293H54.6203V28.8505H54.2622V27.6293H54.01V27.3453H54.2622V27.2487C54.2622 26.9308 54.4542 26.7234 54.8094 26.7234C54.9326 26.7234 55.053 26.749 55.1332 26.8058L55.0329 27.0726C54.9785 27.0357 54.9097 27.0102 54.8352 27.0102C54.6863 27.0102 54.6088 27.0927 54.6088 27.2544" fill="#FEFEFE"/>
<path fill-rule="evenodd" clip-rule="evenodd" d="M57.8784 26.8626V28.8505H57.5058V27.9985H56.4686V28.8505H56.0962V26.8626H56.4686V27.6833H57.5058V26.8626H57.8784Z" fill="#FEFEFE"/>
<path fill-rule="evenodd" clip-rule="evenodd" d="M59.5262 28.0922C59.5262 27.8027 59.3313 27.6179 59.0705 27.6179C58.8128 27.6179 58.6179 27.8027 58.6179 28.0922C58.6179 28.3818 58.8128 28.5665 59.0705 28.5665C59.3313 28.5665 59.5262 28.3818 59.5262 28.0922M58.2568 28.0922C58.2568 27.6379 58.6006 27.3168 59.0705 27.3168C59.5463 27.3168 59.8873 27.6379 59.8873 28.0922C59.8873 28.5466 59.5463 28.8703 59.0705 28.8703C58.6006 28.8703 58.2568 28.5466 58.2568 28.0922" fill="#FEFEFE"/>
<path fill-rule="evenodd" clip-rule="evenodd" d="M62.79 27.9814V28.8504H62.4318V28.027C62.4318 27.7572 62.3057 27.6265 62.088 27.6265C61.8529 27.6265 61.6897 27.7798 61.6897 28.0808V28.8504H61.3315V28.027C61.3315 27.7572 61.2054 27.6265 60.9877 27.6265C60.7499 27.6265 60.5894 27.7798 60.5894 28.0808V28.8504H60.2312V27.334H60.5722V27.5271C60.6868 27.3908 60.8644 27.317 61.0736 27.317C61.2971 27.317 61.4834 27.3992 61.5894 27.5697C61.7125 27.4135 61.9189 27.317 62.1624 27.317C62.5321 27.317 62.79 27.5241 62.79 27.9814" fill="#FEFEFE"/>
<path fill-rule="evenodd" clip-rule="evenodd" d="M63.4923 27.9702H64.3604C64.3318 27.7515 64.1627 27.6009 63.9279 27.6009C63.6957 27.6009 63.5268 27.7486 63.4923 27.9702M64.6957 28.2058H63.4953C63.5381 28.4273 63.7244 28.5693 63.9909 28.5693C64.1627 28.5693 64.2974 28.5153 64.4064 28.4046L64.5983 28.6233C64.4607 28.7852 64.2458 28.8702 63.9823 28.8702C63.4695 28.8702 63.1371 28.5437 63.1371 28.0922C63.1371 27.6407 63.4722 27.3169 63.9279 27.3169C64.3749 27.3169 64.7015 27.6265 64.7015 28.1007C64.7015 28.1291 64.6986 28.1718 64.6957 28.2058" fill="#FEFEFE"/>
<mask id="mask1_2_599" style="mask-type:alpha" maskUnits="userSpaceOnUse" x="65" y="26" width="3" height="3">
<path fill-rule="evenodd" clip-rule="evenodd" d="M65.7277 26.8341H67.5958V28.8789H65.7277V26.8341Z" fill="white"/>
</mask>
<g mask="url(#mask1_2_599)">
<path fill-rule="evenodd" clip-rule="evenodd" d="M65.7277 27.8565C65.7277 27.263 66.186 26.8341 66.8022 26.8341C67.1287 26.8341 67.4095 26.9506 67.5958 27.1664L67.3551 27.3908C67.2089 27.2346 67.0284 27.1579 66.8192 27.1579C66.4038 27.1579 66.1029 27.4476 66.1029 27.8565C66.1029 28.2655 66.4038 28.5552 66.8192 28.5552C67.0284 28.5552 67.2089 28.4785 67.3551 28.3194L67.5958 28.5466C67.4095 28.7625 67.1287 28.8789 66.7991 28.8789C66.186 28.8789 65.7277 28.4501 65.7277 27.8565" fill="#FEFEFE"/>
</g>
<path fill-rule="evenodd" clip-rule="evenodd" d="M68.8281 28.3761V28.2H68.4586C68.215 28.2 68.1491 28.2911 68.1491 28.4017C68.1491 28.5295 68.258 28.6119 68.4414 28.6119C68.6162 28.6119 68.7681 28.5324 68.8281 28.3761M69.1863 27.9616V28.8505H68.8482V28.6658C68.7622 28.7965 68.5962 28.8703 68.3668 28.8703C68.0173 28.8703 67.7966 28.68 67.7966 28.4161C67.7966 28.1631 67.9686 27.9645 68.4328 27.9645H68.8281V27.9417C68.8281 27.7344 68.702 27.6123 68.4471 27.6123C68.2752 27.6123 68.0975 27.6692 67.9829 27.7627L67.8425 27.5043C68.0058 27.3794 68.2437 27.3169 68.4901 27.3169C68.9315 27.3169 69.1863 27.5242 69.1863 27.9616" fill="#FEFEFE"/>
<path fill-rule="evenodd" clip-rule="evenodd" d="M70.5304 27.3169V27.6549C70.4988 27.6492 70.4731 27.6464 70.4473 27.6464C70.1752 27.6464 70.0032 27.8054 70.0032 28.115V28.8505H69.645V27.334H69.986V27.5555C70.0891 27.3965 70.2755 27.3169 70.5304 27.3169" fill="#FEFEFE"/>
<path fill-rule="evenodd" clip-rule="evenodd" d="M71.049 27.9702H71.9172C71.8885 27.7515 71.7195 27.6009 71.4846 27.6009C71.2525 27.6009 71.0836 27.7486 71.049 27.9702M72.2525 28.2058H71.0521C71.0949 28.4273 71.2812 28.5693 71.5477 28.5693C71.7195 28.5693 71.8542 28.5153 71.9632 28.4046L72.1551 28.6233C72.0175 28.7852 71.8026 28.8702 71.5391 28.8702C71.0263 28.8702 70.6938 28.5437 70.6938 28.0922C70.6938 27.6407 71.029 27.3169 71.4846 27.3169C71.9317 27.3169 72.2582 27.6265 72.2582 28.1007C72.2582 28.1291 72.2554 28.1718 72.2525 28.2058" fill="#FEFEFE"/>
<path fill-rule="evenodd" clip-rule="evenodd" d="M72.4819 28.6347C72.4819 28.4927 72.588 28.399 72.7171 28.399C72.8459 28.399 72.9519 28.4927 72.9519 28.6347C72.9519 28.7709 72.8459 28.8703 72.7171 28.8703C72.588 28.8703 72.4819 28.7709 72.4819 28.6347" fill="#FEFEFE"/>
<mask id="mask2_2_599" style="mask-type:alpha" maskUnits="userSpaceOnUse" x="7" y="0" width="15" height="14">
<path fill-rule="evenodd" clip-rule="evenodd" d="M7.93298 0.149475H21.0368V13.1367H7.93298V0.149475Z" fill="white"/>
</mask>
<g mask="url(#mask2_2_599)">
<path fill-rule="evenodd" clip-rule="evenodd" d="M14.4849 1.21874C17.5076 1.21859 19.9581 3.64696 19.9582 6.64278C19.9584 9.6386 17.5082 12.0673 14.4855 12.0674C11.4628 12.0676 9.0123 9.6392 9.01215 6.64338C9.01547 3.64906 11.4637 1.22233 14.4849 1.21874M14.4849 13.1367C18.1034 13.1367 21.0368 10.2294 21.0368 6.64308C21.0368 3.0568 18.1034 0.149475 14.4849 0.149475C10.8664 0.149475 7.93298 3.0568 7.93298 6.64308C7.93706 10.2277 10.8681 13.1327 14.4849 13.1367" fill="#F16322"/>
</g>
<mask id="mask3_2_599" style="mask-type:alpha" maskUnits="userSpaceOnUse" x="0" y="9" width="8" height="13">
<path fill-rule="evenodd" clip-rule="evenodd" d="M0 9.36072H7.54131V21.7279H0V9.36072Z" fill="white"/>
</mask>
<g mask="url(#mask3_2_599)">
<path fill-rule="evenodd" clip-rule="evenodd" d="M7.54132 10.4011C7.4003 10.0631 7.28447 9.71544 7.19442 9.36072C2.7734 11.9468 0.0432872 16.64 0 21.7279H1.07886C1.12049 17.101 3.56237 12.8213 7.54132 10.4011" fill="#F16322"/>
</g>
<path fill-rule="evenodd" clip-rule="evenodd" d="M22.0525 9.36075C21.9624 9.71548 21.8464 10.0632 21.7056 10.4012C24.7787 12.27 26.9735 15.2756 27.8047 18.7527H28.9089C28.0403 14.8135 25.556 11.4105 22.0525 9.36075" fill="#F16322"/>
<path fill-rule="evenodd" clip-rule="evenodd" d="M9.1477 12.8106C8.89295 12.5528 8.65706 12.2773 8.44168 11.9862C5.03919 14.0828 2.95341 17.7572 2.91223 21.7278H3.99079C4.03257 18.0701 5.98426 14.695 9.1477 12.8106" fill="#F16322"/>
<path fill-rule="evenodd" clip-rule="evenodd" d="M20.8045 11.9864C20.5891 12.2773 20.3531 12.5528 20.0985 12.8107C22.3473 14.1505 24.017 16.2668 24.7871 18.7527H25.91C25.126 15.9418 23.3034 13.5263 20.8045 11.9864" fill="#F16322"/>
<path fill-rule="evenodd" clip-rule="evenodd" d="M11.8812 14.5913C11.4427 14.4249 11.0207 14.2189 10.6204 13.9757C7.66241 15.4564 5.77949 18.4432 5.73364 21.7273H6.8125C6.86348 18.5428 8.87355 15.7129 11.8812 14.5913" fill="#F16322"/>
<path fill-rule="evenodd" clip-rule="evenodd" d="M18.6257 13.9763C18.2254 14.2193 17.8034 14.4251 17.3651 14.5913C19.3447 15.3295 20.9383 16.8308 21.7827 18.7527H22.947C22.1626 16.6793 20.6201 14.9743 18.6257 13.9763" fill="#F16322"/>
<path fill-rule="evenodd" clip-rule="evenodd" d="M9.35347 21.5126C9.35347 18.6066 11.7305 16.2507 14.6626 16.2509C16.5052 16.2509 18.2162 17.1979 19.1827 18.7526H20.4158C18.8776 15.6049 15.0559 14.2892 11.88 15.8136C8.70401 17.3384 7.37644 21.1259 8.91457 24.2737C9.78815 26.0611 11.457 27.3389 13.4228 27.7251V26.63C11.0361 26.0612 9.35377 23.9454 9.35347 21.5126" fill="#F16322"/>
</svg>
