<svg width="118" height="47" viewBox="0 0 118 47" fill="none" xmlns="http://www.w3.org/2000/svg">
<path fill-rule="evenodd" clip-rule="evenodd" d="M79.8761 39.9883C80.6468 39.9883 81.3387 39.8274 81.9518 39.5057C82.5649 39.1839 83.0583 38.7186 83.432 38.1096V39.9021H84.6231V27.1132H83.3794V32.5597C82.9941 31.9737 82.5007 31.5284 81.8993 31.2239C81.2978 30.9194 80.6234 30.7672 79.8761 30.7672C79.0119 30.7672 78.2295 30.9596 77.5288 31.3446C76.8281 31.7295 76.2792 32.2724 75.8822 32.9733C75.4851 33.6743 75.2866 34.4728 75.2866 35.3691C75.2866 36.2654 75.4851 37.0639 75.8822 37.7649C76.2792 38.4658 76.8281 39.0116 77.5288 39.4022C78.2295 39.7929 79.0119 39.9883 79.8761 39.9883ZM26.6509 39.5487C25.8743 39.8532 25.0306 40.0055 24.1197 40.0055C22.9052 40.0055 21.8104 39.7412 20.8353 39.2126C19.8602 38.6841 19.0953 37.9516 18.5405 37.0151C17.9858 36.0786 17.7085 35.0301 17.7085 33.8696C17.7085 32.7091 17.9858 31.6606 18.5405 30.7241C19.0953 29.7876 19.8631 29.0551 20.844 28.5265C21.825 27.998 22.9227 27.7337 24.1372 27.7337C25.0481 27.7337 25.8889 27.8831 26.6596 28.1818C27.4304 28.4806 28.0844 28.9172 28.6215 29.4917L27.7982 30.3018C26.8407 29.3481 25.632 28.8713 24.1722 28.8713C23.203 28.8713 22.3213 29.0896 21.5272 29.5262C20.7331 29.9628 20.1112 30.5604 19.6616 31.3187C19.212 32.0771 18.9872 32.9274 18.9872 33.8696C18.9872 34.8118 19.212 35.6621 19.6616 36.4205C20.1112 37.1788 20.7331 37.7763 21.5272 38.213C22.3213 38.6496 23.203 38.8679 24.1722 38.8679C25.6437 38.8679 26.8523 38.3853 27.7982 37.4201L28.6215 38.2302C28.0844 38.8047 27.4275 39.2442 26.6509 39.5487ZM35.6546 39.5918C35.1116 39.8561 34.4664 39.9883 33.719 39.9883C32.6913 39.9883 31.8738 39.747 31.2666 39.2644C30.6593 38.7818 30.3557 38.144 30.3557 37.3512C30.3557 36.5813 30.6389 35.9609 31.2053 35.4897C31.7717 35.0186 32.6738 34.7831 33.9116 34.7831H36.837V34.2315C36.837 33.4502 36.6151 32.8556 36.1713 32.4477C35.7276 32.0397 35.0794 31.8358 34.227 31.8358C33.6431 31.8358 33.0825 31.9306 32.5453 32.1202C32.0081 32.3098 31.5469 32.5712 31.1615 32.9044L30.601 31.9909C31.0681 31.6002 31.6286 31.2986 32.2826 31.086C32.9365 30.8735 33.6255 30.7672 34.3496 30.7672C35.5524 30.7672 36.475 31.0631 37.1172 31.6548C37.7595 32.2466 38.0807 33.1227 38.0807 34.2833V39.9021H36.8895V38.4888C36.6093 38.9599 36.1976 39.3276 35.6546 39.5918ZM33.9116 39.0231C33.1759 39.0231 32.6037 38.8708 32.195 38.5663C31.7863 38.2618 31.5819 37.8453 31.5819 37.3167C31.5819 36.2366 32.3702 35.6966 33.9467 35.6966H36.837V37.1788C36.5917 37.7763 36.218 38.2331 35.7159 38.5491C35.2137 38.8651 34.6123 39.0231 33.9116 39.0231ZM42.7051 35.2829V39.9021H41.4614V30.8361H42.6526V32.6114C42.9445 32.0024 43.3795 31.5428 43.9576 31.2325C44.5357 30.9223 45.2509 30.7672 46.1034 30.7672V31.9564L45.8056 31.9392C44.8364 31.9392 44.0773 32.2322 43.5284 32.8182C42.9796 33.4042 42.7051 34.2258 42.7051 35.2829ZM52.392 39.9883C53.1277 39.9883 53.8021 39.8619 54.4152 39.6091C55.0283 39.3563 55.5392 38.9886 55.9479 38.506L55.2473 37.7131C54.8969 38.1038 54.4824 38.3997 54.0036 38.6008C53.5248 38.8019 52.9993 38.9024 52.427 38.9024C51.4111 38.9024 50.5702 38.6123 49.9046 38.032C49.239 37.4517 48.8711 36.6905 48.801 35.7483H56.5085L56.526 35.3691C56.526 34.4728 56.3333 33.6771 55.9479 32.982C55.5626 32.2868 55.0312 31.7439 54.3539 31.3532C53.6766 30.9625 52.9117 30.7672 52.0592 30.7672C51.2067 30.7672 50.4389 30.9625 49.7557 31.3532C49.0725 31.7439 48.5354 32.2897 48.1441 32.9906C47.7529 33.6915 47.5573 34.4843 47.5573 35.3691C47.5573 36.2539 47.7617 37.0467 48.1704 37.7476C48.5791 38.4485 49.1484 38.9972 49.8783 39.3936C50.6082 39.79 51.4461 39.9883 52.392 39.9883ZM48.801 34.8348H55.3348C55.2531 33.9385 54.9115 33.2118 54.3101 32.6545C53.7087 32.0972 52.9584 31.8186 52.0592 31.8186C51.1717 31.8186 50.4272 32.0972 49.8258 32.6545C49.2244 33.2118 48.8828 33.9385 48.801 34.8348ZM60.625 39.9021V27.8371H59.3287V39.9021H60.625ZM65.5998 35.145V39.9021H64.3561V30.8361H65.5472V32.508C65.8859 31.9564 66.3559 31.5284 66.9573 31.2239C67.5587 30.9194 68.2565 30.7672 69.0506 30.7672C70.2067 30.7672 71.1263 31.0975 71.8095 31.7582C72.4927 32.4189 72.8342 33.3813 72.8342 34.6452V39.9021H71.5905V34.7659C71.5905 33.8236 71.3511 33.1055 70.8724 32.6114C70.3936 32.1173 69.7104 31.8703 68.8229 31.8703C67.8302 31.8703 67.0449 32.1604 66.4668 32.7407C65.8888 33.3209 65.5998 34.1224 65.5998 35.145ZM78.2207 38.4629C78.7404 38.7559 79.3272 38.9024 79.9811 38.9024C80.6234 38.9024 81.2044 38.7559 81.7241 38.4629C82.2438 38.1699 82.6525 37.7534 82.9503 37.2133C83.2481 36.6733 83.3969 36.0585 83.3969 35.3691C83.3969 34.6797 83.2481 34.0649 82.9503 33.5249C82.6525 32.9848 82.2438 32.5683 81.7241 32.2753C81.2044 31.9823 80.6234 31.8358 79.9811 31.8358C79.3272 31.8358 78.7404 31.9823 78.2207 32.2753C77.701 32.5683 77.2923 32.9848 76.9945 33.5249C76.6967 34.0649 76.5478 34.6797 76.5478 35.3691C76.5478 36.0585 76.6967 36.6733 76.9945 37.2133C77.2923 37.7534 77.701 38.1699 78.2207 38.4629ZM91.9978 39.9883C92.7335 39.9883 93.4079 39.8619 94.021 39.6091C94.6341 39.3563 95.145 38.9886 95.5537 38.506L94.853 37.7131C94.5027 38.1038 94.0881 38.3997 93.6093 38.6008C93.1305 38.8019 92.605 38.9024 92.0328 38.9024C91.0168 38.9024 90.176 38.6123 89.5104 38.032C88.8447 37.4517 88.4769 36.6905 88.4068 35.7483H96.1142L96.1318 35.3691C96.1318 34.4728 95.9391 33.6771 95.5537 32.982C95.1683 32.2868 94.637 31.7439 93.9597 31.3532C93.2823 30.9625 92.5174 30.7672 91.6649 30.7672C90.8124 30.7672 90.0446 30.9625 89.3615 31.3532C88.6783 31.7439 88.1411 32.2897 87.7499 32.9906C87.3587 33.6915 87.1631 34.4843 87.1631 35.3691C87.1631 36.2539 87.3674 37.0467 87.7762 37.7476C88.1849 38.4485 88.7542 38.9972 89.4841 39.3936C90.214 39.79 91.0518 39.9883 91.9978 39.9883ZM88.4068 34.8348H94.9406C94.8589 33.9385 94.5173 33.2118 93.9159 32.6545C93.3145 32.0972 92.5641 31.8186 91.6649 31.8186C90.7774 31.8186 90.0329 32.0972 89.4315 32.6545C88.8301 33.2118 88.4885 33.9385 88.4068 34.8348ZM102.578 39.9883C103.314 39.9883 103.988 39.8619 104.601 39.6091C105.214 39.3563 105.725 38.9886 106.134 38.506L105.433 37.7131C105.083 38.1038 104.668 38.3997 104.19 38.6008C103.711 38.8019 103.185 38.9024 102.613 38.9024C101.597 38.9024 100.756 38.6123 100.091 38.032C99.4249 37.4517 99.0571 36.6905 98.987 35.7483H106.694L106.712 35.3691C106.712 34.4728 106.519 33.6771 106.134 32.982C105.749 32.2868 105.217 31.7439 104.54 31.3532C103.863 30.9625 103.098 30.7672 102.245 30.7672C101.393 30.7672 100.625 30.9625 99.9417 31.3532C99.2585 31.7439 98.7213 32.2897 98.3301 32.9906C97.9389 33.6915 97.7433 34.4843 97.7433 35.3691C97.7433 36.2539 97.9477 37.0467 98.3564 37.7476C98.7651 38.4485 99.3344 38.9972 100.064 39.3936C100.794 39.79 101.632 39.9883 102.578 39.9883ZM98.987 34.8348H105.521C105.439 33.9385 105.097 33.2118 104.496 32.6545C103.895 32.0972 103.144 31.8186 102.245 31.8186C101.358 31.8186 100.613 32.0972 100.012 32.6545C99.4103 33.2118 99.0688 33.9385 98.987 34.8348ZM112.913 39.9883C113.684 39.9883 114.376 39.8274 114.989 39.5057C115.602 39.1839 116.095 38.7186 116.469 38.1096V39.9021H117.66V27.1132H116.416V32.5597C116.031 31.9737 115.538 31.5284 114.936 31.2239C114.335 30.9194 113.66 30.7672 112.913 30.7672C112.049 30.7672 111.266 30.9596 110.566 31.3446C109.865 31.7295 109.316 32.2724 108.919 32.9733C108.522 33.6743 108.324 34.4728 108.324 35.3691C108.324 36.2654 108.522 37.0639 108.919 37.7649C109.316 38.4658 109.865 39.0116 110.566 39.4022C111.266 39.7929 112.049 39.9883 112.913 39.9883ZM111.258 38.4629C111.777 38.7559 112.364 38.9024 113.018 38.9024C113.66 38.9024 114.241 38.7559 114.761 38.4629C115.281 38.1699 115.689 37.7534 115.987 37.2133C116.285 36.6733 116.434 36.0585 116.434 35.3691C116.434 34.6797 116.285 34.0649 115.987 33.5249C115.689 32.9848 115.281 32.5683 114.761 32.2753C114.241 31.9823 113.66 31.8358 113.018 31.8358C112.364 31.8358 111.777 31.9823 111.258 32.2753C110.738 32.5683 110.329 32.9848 110.031 33.5249C109.734 34.0649 109.585 34.6797 109.585 35.3691C109.585 36.0585 109.734 36.6733 110.031 37.2133C110.329 37.7534 110.738 38.1699 111.258 38.4629Z" fill="#2E2E2E"/>
<path fill-rule="evenodd" clip-rule="evenodd" d="M79.8761 39.9883C80.6468 39.9883 81.3387 39.8274 81.9518 39.5057C82.5649 39.1839 83.0583 38.7186 83.432 38.1096V39.9021H84.6231V27.1132H83.3794V32.5597C82.9941 31.9737 82.5007 31.5284 81.8993 31.2239C81.2978 30.9194 80.6234 30.7672 79.8761 30.7672C79.0119 30.7672 78.2295 30.9596 77.5288 31.3446C76.8281 31.7295 76.2792 32.2724 75.8822 32.9733C75.4851 33.6743 75.2866 34.4728 75.2866 35.3691C75.2866 36.2654 75.4851 37.0639 75.8822 37.7649C76.2792 38.4658 76.8281 39.0116 77.5288 39.4022C78.2295 39.7929 79.0119 39.9883 79.8761 39.9883ZM26.6509 39.5487C25.8743 39.8532 25.0306 40.0055 24.1197 40.0055C22.9052 40.0055 21.8104 39.7412 20.8353 39.2126C19.8602 38.6841 19.0953 37.9516 18.5405 37.0151C17.9858 36.0786 17.7085 35.0301 17.7085 33.8696C17.7085 32.7091 17.9858 31.6606 18.5405 30.7241C19.0953 29.7876 19.8631 29.0551 20.844 28.5265C21.825 27.998 22.9227 27.7337 24.1372 27.7337C25.0481 27.7337 25.8889 27.8831 26.6596 28.1818C27.4304 28.4806 28.0844 28.9172 28.6215 29.4917L27.7982 30.3018C26.8407 29.3481 25.632 28.8713 24.1722 28.8713C23.203 28.8713 22.3213 29.0896 21.5272 29.5262C20.7331 29.9628 20.1112 30.5604 19.6616 31.3187C19.212 32.0771 18.9872 32.9274 18.9872 33.8696C18.9872 34.8118 19.212 35.6621 19.6616 36.4205C20.1112 37.1788 20.7331 37.7763 21.5272 38.213C22.3213 38.6496 23.203 38.8679 24.1722 38.8679C25.6437 38.8679 26.8523 38.3853 27.7982 37.4201L28.6215 38.2302C28.0844 38.8047 27.4275 39.2442 26.6509 39.5487ZM35.6546 39.5918C35.1116 39.8561 34.4664 39.9883 33.719 39.9883C32.6913 39.9883 31.8738 39.747 31.2666 39.2644C30.6593 38.7818 30.3557 38.144 30.3557 37.3512C30.3557 36.5813 30.6389 35.9609 31.2053 35.4897C31.7717 35.0186 32.6738 34.7831 33.9116 34.7831H36.837V34.2315C36.837 33.4502 36.6151 32.8556 36.1713 32.4477C35.7276 32.0397 35.0794 31.8358 34.227 31.8358C33.6431 31.8358 33.0825 31.9306 32.5453 32.1202C32.0081 32.3098 31.5469 32.5712 31.1615 32.9044L30.601 31.9909C31.0681 31.6002 31.6286 31.2986 32.2826 31.086C32.9365 30.8735 33.6255 30.7672 34.3496 30.7672C35.5524 30.7672 36.475 31.0631 37.1172 31.6548C37.7595 32.2466 38.0807 33.1227 38.0807 34.2833V39.9021H36.8895V38.4888C36.6093 38.9599 36.1976 39.3276 35.6546 39.5918ZM33.9116 39.0231C33.1759 39.0231 32.6037 38.8708 32.195 38.5663C31.7863 38.2618 31.5819 37.8453 31.5819 37.3167C31.5819 36.2366 32.3702 35.6966 33.9467 35.6966H36.837V37.1788C36.5917 37.7763 36.218 38.2331 35.7159 38.5491C35.2137 38.8651 34.6123 39.0231 33.9116 39.0231ZM42.7051 35.2829V39.9021H41.4614V30.8361H42.6526V32.6114C42.9445 32.0024 43.3795 31.5428 43.9576 31.2325C44.5357 30.9223 45.2509 30.7672 46.1034 30.7672V31.9564L45.8056 31.9392C44.8364 31.9392 44.0773 32.2322 43.5284 32.8182C42.9796 33.4042 42.7051 34.2258 42.7051 35.2829ZM52.392 39.9883C53.1277 39.9883 53.8021 39.8619 54.4152 39.6091C55.0283 39.3563 55.5392 38.9886 55.9479 38.506L55.2473 37.7131C54.8969 38.1038 54.4824 38.3997 54.0036 38.6008C53.5248 38.8019 52.9993 38.9024 52.427 38.9024C51.4111 38.9024 50.5702 38.6123 49.9046 38.032C49.239 37.4517 48.8711 36.6905 48.801 35.7483H56.5085L56.526 35.3691C56.526 34.4728 56.3333 33.6771 55.9479 32.982C55.5626 32.2868 55.0312 31.7439 54.3539 31.3532C53.6766 30.9625 52.9117 30.7672 52.0592 30.7672C51.2067 30.7672 50.4389 30.9625 49.7557 31.3532C49.0725 31.7439 48.5354 32.2897 48.1441 32.9906C47.7529 33.6915 47.5573 34.4843 47.5573 35.3691C47.5573 36.2539 47.7617 37.0467 48.1704 37.7476C48.5791 38.4485 49.1484 38.9972 49.8783 39.3936C50.6082 39.79 51.4461 39.9883 52.392 39.9883ZM48.801 34.8348H55.3348C55.2531 33.9385 54.9115 33.2118 54.3101 32.6545C53.7087 32.0972 52.9584 31.8186 52.0592 31.8186C51.1717 31.8186 50.4272 32.0972 49.8258 32.6545C49.2244 33.2118 48.8828 33.9385 48.801 34.8348ZM60.625 39.9021V27.8371H59.3287V39.9021H60.625ZM65.5998 35.145V39.9021H64.3561V30.8361H65.5472V32.508C65.8859 31.9564 66.3559 31.5284 66.9573 31.2239C67.5587 30.9194 68.2565 30.7672 69.0506 30.7672C70.2067 30.7672 71.1263 31.0975 71.8095 31.7582C72.4927 32.4189 72.8342 33.3813 72.8342 34.6452V39.9021H71.5905V34.7659C71.5905 33.8236 71.3511 33.1055 70.8724 32.6114C70.3936 32.1173 69.7104 31.8703 68.8229 31.8703C67.8302 31.8703 67.0449 32.1604 66.4668 32.7407C65.8888 33.3209 65.5998 34.1224 65.5998 35.145ZM78.2207 38.4629C78.7404 38.7559 79.3272 38.9024 79.9811 38.9024C80.6234 38.9024 81.2044 38.7559 81.7241 38.4629C82.2438 38.1699 82.6525 37.7534 82.9503 37.2133C83.2481 36.6733 83.3969 36.0585 83.3969 35.3691C83.3969 34.6797 83.2481 34.0649 82.9503 33.5249C82.6525 32.9848 82.2438 32.5683 81.7241 32.2753C81.2044 31.9823 80.6234 31.8358 79.9811 31.8358C79.3272 31.8358 78.7404 31.9823 78.2207 32.2753C77.701 32.5683 77.2923 32.9848 76.9945 33.5249C76.6967 34.0649 76.5478 34.6797 76.5478 35.3691C76.5478 36.0585 76.6967 36.6733 76.9945 37.2133C77.2923 37.7534 77.701 38.1699 78.2207 38.4629ZM91.9978 39.9883C92.7335 39.9883 93.4079 39.8619 94.021 39.6091C94.6341 39.3563 95.145 38.9886 95.5537 38.506L94.853 37.7131C94.5027 38.1038 94.0881 38.3997 93.6093 38.6008C93.1305 38.8019 92.605 38.9024 92.0328 38.9024C91.0168 38.9024 90.176 38.6123 89.5104 38.032C88.8447 37.4517 88.4769 36.6905 88.4068 35.7483H96.1142L96.1318 35.3691C96.1318 34.4728 95.9391 33.6771 95.5537 32.982C95.1683 32.2868 94.637 31.7439 93.9597 31.3532C93.2823 30.9625 92.5174 30.7672 91.6649 30.7672C90.8124 30.7672 90.0446 30.9625 89.3615 31.3532C88.6783 31.7439 88.1411 32.2897 87.7499 32.9906C87.3587 33.6915 87.1631 34.4843 87.1631 35.3691C87.1631 36.2539 87.3674 37.0467 87.7762 37.7476C88.1849 38.4485 88.7542 38.9972 89.4841 39.3936C90.214 39.79 91.0518 39.9883 91.9978 39.9883ZM88.4068 34.8348H94.9406C94.8589 33.9385 94.5173 33.2118 93.9159 32.6545C93.3145 32.0972 92.5641 31.8186 91.6649 31.8186C90.7774 31.8186 90.0329 32.0972 89.4315 32.6545C88.8301 33.2118 88.4885 33.9385 88.4068 34.8348ZM102.578 39.9883C103.314 39.9883 103.988 39.8619 104.601 39.6091C105.214 39.3563 105.725 38.9886 106.134 38.506L105.433 37.7131C105.083 38.1038 104.668 38.3997 104.19 38.6008C103.711 38.8019 103.185 38.9024 102.613 38.9024C101.597 38.9024 100.756 38.6123 100.091 38.032C99.4249 37.4517 99.0571 36.6905 98.987 35.7483H106.694L106.712 35.3691C106.712 34.4728 106.519 33.6771 106.134 32.982C105.749 32.2868 105.217 31.7439 104.54 31.3532C103.863 30.9625 103.098 30.7672 102.245 30.7672C101.393 30.7672 100.625 30.9625 99.9417 31.3532C99.2585 31.7439 98.7213 32.2897 98.3301 32.9906C97.9389 33.6915 97.7433 34.4843 97.7433 35.3691C97.7433 36.2539 97.9477 37.0467 98.3564 37.7476C98.7651 38.4485 99.3344 38.9972 100.064 39.3936C100.794 39.79 101.632 39.9883 102.578 39.9883ZM98.987 34.8348H105.521C105.439 33.9385 105.097 33.2118 104.496 32.6545C103.895 32.0972 103.144 31.8186 102.245 31.8186C101.358 31.8186 100.613 32.0972 100.012 32.6545C99.4103 33.2118 99.0688 33.9385 98.987 34.8348ZM112.913 39.9883C113.684 39.9883 114.376 39.8274 114.989 39.5057C115.602 39.1839 116.095 38.7186 116.469 38.1096V39.9021H117.66V27.1132H116.416V32.5597C116.031 31.9737 115.538 31.5284 114.936 31.2239C114.335 30.9194 113.66 30.7672 112.913 30.7672C112.049 30.7672 111.266 30.9596 110.566 31.3446C109.865 31.7295 109.316 32.2724 108.919 32.9733C108.522 33.6743 108.324 34.4728 108.324 35.3691C108.324 36.2654 108.522 37.0639 108.919 37.7649C109.316 38.4658 109.865 39.0116 110.566 39.4022C111.266 39.7929 112.049 39.9883 112.913 39.9883ZM111.258 38.4629C111.777 38.7559 112.364 38.9024 113.018 38.9024C113.66 38.9024 114.241 38.7559 114.761 38.4629C115.281 38.1699 115.689 37.7534 115.987 37.2133C116.285 36.6733 116.434 36.0585 116.434 35.3691C116.434 34.6797 116.285 34.0649 115.987 33.5249C115.689 32.9848 115.281 32.5683 114.761 32.2753C114.241 31.9823 113.66 31.8358 113.018 31.8358C112.364 31.8358 111.777 31.9823 111.258 32.2753C110.738 32.5683 110.329 32.9848 110.031 33.5249C109.734 34.0649 109.585 34.6797 109.585 35.3691C109.585 36.0585 109.734 36.6733 110.031 37.2133C110.329 37.7534 110.738 38.1699 111.258 38.4629Z" fill="#2E2E2E"/>
<path fill-rule="evenodd" clip-rule="evenodd" d="M88.0925 45.9818V44.026H88.7535V43.5712H88.074V43.4257C88.074 43.1649 88.1957 43.0345 88.4392 43.0345C88.5532 43.0345 88.6595 43.0679 88.7581 43.1346L88.9199 42.707C88.7936 42.6191 88.6194 42.5751 88.3976 42.5751C88.1171 42.5751 87.8999 42.6502 87.7458 42.8003C87.5917 42.9504 87.5147 43.1558 87.5147 43.4166V43.5712H87.1079V44.026H87.5147V45.9818H88.0925ZM63.1124 45.9818V44.7538C63.1124 44.5173 63.174 44.3361 63.2973 44.2102C63.4205 44.0844 63.5885 44.0215 63.8011 44.0215C63.9891 44.0215 64.1339 44.0753 64.2356 44.183C64.3373 44.2906 64.3882 44.4505 64.3882 44.6628V45.9818H64.966V44.59C64.966 44.2383 64.872 43.973 64.684 43.7941C64.496 43.6152 64.2464 43.5257 63.9352 43.5257C63.7626 43.5257 63.6062 43.5523 63.466 43.6053C63.3258 43.6584 63.2079 43.7349 63.1124 43.835V42.607H62.5345V45.9818H63.1124ZM61.0646 45.9818V43.2983H62.137V42.798H59.3912V43.2983H60.4637V45.9818H61.0646ZM67.4344 45.9136C67.2649 45.9803 67.0739 46.0136 66.8612 46.0136C66.59 46.0136 66.3512 45.9606 66.1447 45.8545C65.9383 45.7483 65.7788 45.6005 65.6663 45.411C65.5538 45.2215 65.4976 45.007 65.4976 44.7674C65.4976 44.5309 65.5523 44.3179 65.6617 44.1284C65.7711 43.9389 65.9229 43.791 66.117 43.6849C66.3112 43.5788 66.53 43.5257 66.7734 43.5257C67.0138 43.5257 67.2287 43.578 67.4182 43.6826C67.6078 43.7873 67.7557 43.9343 67.862 44.1238C67.9683 44.3133 68.0215 44.5324 68.0215 44.7811C68.0215 44.8205 68.0184 44.8766 68.0122 44.9493H66.0754C66.1093 45.1282 66.1979 45.27 66.3412 45.3746C66.4845 45.4792 66.6625 45.5315 66.8751 45.5315C67.1463 45.5315 67.3697 45.4436 67.5454 45.2677L67.8551 45.6179C67.7441 45.7483 67.6039 45.8469 67.4344 45.9136ZM67.4714 44.5718H66.0708C66.0985 44.3929 66.1763 44.2497 66.3042 44.142C66.4321 44.0344 66.5885 43.9806 66.7734 43.9806C66.9614 43.9806 67.1186 44.0351 67.2449 44.1443C67.3713 44.2535 67.4468 44.396 67.4714 44.5718ZM70.5084 44.6173V45.9818H69.9075V42.798H70.5084V44.1125H72.1817V42.798H72.7827V45.9818H72.1817V44.6173H70.5084ZM74.7565 46.0136C74.9691 46.0136 75.1602 45.9803 75.3297 45.9136C75.4992 45.8469 75.6394 45.7483 75.7503 45.6179L75.4406 45.2677C75.265 45.4436 75.0416 45.5315 74.7704 45.5315C74.5577 45.5315 74.3798 45.4792 74.2365 45.3746C74.0932 45.27 74.0046 45.1282 73.9707 44.9493H75.9075C75.9137 44.8766 75.9167 44.8205 75.9167 44.7811C75.9167 44.5324 75.8636 44.3133 75.7573 44.1238C75.651 43.9343 75.503 43.7873 75.3135 43.6826C75.124 43.578 74.909 43.5257 74.6687 43.5257C74.4252 43.5257 74.2064 43.5788 74.0123 43.6849C73.8181 43.791 73.6664 43.9389 73.557 44.1284C73.4476 44.3179 73.3929 44.5309 73.3929 44.7674C73.3929 45.007 73.4491 45.2215 73.5616 45.411C73.6741 45.6005 73.8335 45.7483 74.04 45.8545C74.2465 45.9606 74.4853 46.0136 74.7565 46.0136ZM73.966 44.5718H75.3667C75.342 44.396 75.2665 44.2535 75.1402 44.1443C75.0138 44.0351 74.8566 43.9806 74.6687 43.9806C74.4838 43.9806 74.3274 44.0344 74.1995 44.142C74.0716 44.2497 73.9938 44.3929 73.966 44.5718ZM77.2157 46.0136C77.4006 46.0136 77.5585 45.9856 77.6895 45.9295C77.8205 45.8734 77.9214 45.7923 77.9923 45.6862V45.9818H78.5377V44.5582C78.5377 44.2125 78.4414 43.954 78.2488 43.7827C78.0562 43.6114 77.7781 43.5257 77.4144 43.5257C77.2111 43.5257 77.0184 43.5515 76.8366 43.603C76.6548 43.6546 76.4992 43.7289 76.3698 43.8259L76.5963 44.2398C76.6887 44.164 76.802 44.1049 76.936 44.0624C77.0701 44.02 77.2064 43.9987 77.3451 43.9987C77.5485 43.9987 77.7018 44.0442 77.805 44.1352C77.9083 44.2262 77.9599 44.3565 77.9599 44.5264V44.5627H77.322C76.9676 44.5627 76.708 44.6287 76.5431 44.7606C76.3782 44.8925 76.2958 45.0676 76.2958 45.2859C76.2958 45.4254 76.3335 45.5505 76.409 45.6612C76.4845 45.7718 76.5916 45.8582 76.7303 45.9204C76.869 45.9826 77.0308 46.0136 77.2157 46.0136ZM76.9892 45.5088C77.0724 45.5694 77.1879 45.5998 77.3359 45.5998C77.4807 45.5998 77.6094 45.5672 77.7218 45.502C77.8343 45.4368 77.9137 45.3435 77.9599 45.2222V44.9402H77.3636C77.0308 44.9402 76.8644 45.0479 76.8644 45.2632C76.8644 45.3663 76.906 45.4481 76.9892 45.5088ZM79.8551 45.9818V44.8038C79.8551 44.5612 79.9183 44.3755 80.0447 44.2466C80.171 44.1178 80.3467 44.0533 80.5716 44.0533C80.6117 44.0533 80.6564 44.0579 80.7057 44.067V43.5257C80.2866 43.5257 79.9938 43.6531 79.8274 43.9078V43.553H79.2773V45.9818H79.8551ZM82.4553 45.9727C82.3582 46 82.2558 46.0136 82.1479 46.0136C81.8767 46.0136 81.6672 45.9439 81.5192 45.8044C81.3713 45.6649 81.2974 45.4618 81.2974 45.195V44.026H80.8906V43.5712H81.2974V43.0163H81.8752V43.5712H82.5362V44.026H81.8752V45.1813C81.8752 45.2996 81.9045 45.3898 81.963 45.4519C82.0216 45.5141 82.1063 45.5452 82.2172 45.5452C82.3467 45.5452 82.4545 45.5118 82.5408 45.4451L82.7026 45.8499C82.6348 45.9045 82.5524 45.9454 82.4553 45.9727ZM85.5639 46.0136C85.8166 46.0136 86.0431 45.9606 86.2435 45.8545C86.4438 45.7483 86.6002 45.6005 86.7126 45.411C86.8251 45.2215 86.8814 45.007 86.8814 44.7674C86.8814 44.5279 86.8251 44.3141 86.7126 44.1261C86.6002 43.9381 86.4438 43.791 86.2435 43.6849C86.0431 43.5788 85.8166 43.5257 85.5639 43.5257C85.3143 43.5257 85.0894 43.5788 84.8891 43.6849C84.6887 43.791 84.5324 43.9381 84.4199 44.1261C84.3074 44.3141 84.2512 44.5279 84.2512 44.7674C84.2512 45.007 84.3074 45.2215 84.4199 45.411C84.5324 45.6005 84.6887 45.7483 84.8891 45.8545C85.0894 45.9606 85.3143 46.0136 85.5639 46.0136ZM85.0393 45.3178C85.1764 45.4572 85.3513 45.527 85.5639 45.527C85.7766 45.527 85.9522 45.4572 86.0909 45.3178C86.2296 45.1783 86.2989 44.9948 86.2989 44.7674C86.2989 44.54 86.2296 44.3565 86.0909 44.2171C85.9522 44.0776 85.7766 44.0078 85.5639 44.0078C85.3513 44.0078 85.1764 44.0776 85.0393 44.2171C84.9022 44.3565 84.8336 44.54 84.8336 44.7674C84.8336 44.9948 84.9022 45.1783 85.0393 45.3178ZM91.074 44.6173V45.9818H90.4731V42.798H91.074V44.1125H92.7473V42.798H93.3483V45.9818H92.7473V44.6173H91.074ZM95.2712 46.0136C95.5239 46.0136 95.7504 45.9606 95.9507 45.8545C96.1511 45.7483 96.3074 45.6005 96.4199 45.411C96.5324 45.2215 96.5887 45.007 96.5887 44.7674C96.5887 44.5279 96.5324 44.3141 96.4199 44.1261C96.3074 43.9381 96.1511 43.791 95.9507 43.6849C95.7504 43.5788 95.5239 43.5257 95.2712 43.5257C95.0216 43.5257 94.7967 43.5788 94.5964 43.6849C94.396 43.791 94.2396 43.9381 94.1272 44.1261C94.0147 44.3141 93.9584 44.5279 93.9584 44.7674C93.9584 45.007 94.0147 45.2215 94.1272 45.411C94.2396 45.6005 94.396 45.7483 94.5964 45.8545C94.7967 45.9606 95.0216 46.0136 95.2712 46.0136ZM94.7466 45.3178C94.8837 45.4572 95.0586 45.527 95.2712 45.527C95.4839 45.527 95.6595 45.4572 95.7982 45.3178C95.9369 45.1783 96.0062 44.9948 96.0062 44.7674C96.0062 44.54 95.9369 44.3565 95.7982 44.2171C95.6595 44.0776 95.4839 44.0078 95.2712 44.0078C95.0586 44.0078 94.8837 44.0776 94.7466 44.2171C94.6094 44.3565 94.5409 44.54 94.5409 44.7674C94.5409 44.9948 94.6094 45.1783 94.7466 45.3178ZM97.7212 45.9818V44.7492C97.7212 44.5127 97.779 44.3323 97.8945 44.208C98.0101 44.0837 98.1665 44.0215 98.3637 44.0215C98.5424 44.0215 98.6796 44.0753 98.7751 44.183C98.8706 44.2906 98.9184 44.4505 98.9184 44.6628V45.9818H99.4962V44.7492C99.4962 44.5157 99.5548 44.3361 99.6719 44.2102C99.789 44.0844 99.9446 44.0215 100.139 44.0215C100.317 44.0215 100.455 44.0753 100.55 44.183C100.646 44.2906 100.693 44.4505 100.693 44.6628V45.9818H101.271V44.59C101.271 44.2353 101.18 43.9692 100.999 43.7918C100.817 43.6144 100.57 43.5257 100.259 43.5257C100.065 43.5257 99.8876 43.5614 99.7273 43.6326C99.5671 43.7039 99.4361 43.8032 99.3344 43.9305C99.2512 43.7971 99.138 43.6963 98.9947 43.6281C98.8514 43.5598 98.6873 43.5257 98.5024 43.5257C98.3329 43.5257 98.1788 43.5545 98.0401 43.6121C97.9015 43.6698 97.7859 43.7531 97.6934 43.8623V43.553H97.1434V45.9818H97.7212ZM103.744 45.9136C103.575 45.9803 103.384 46.0136 103.171 46.0136C102.9 46.0136 102.661 45.9606 102.455 45.8545C102.248 45.7483 102.089 45.6005 101.976 45.411C101.864 45.2215 101.807 45.007 101.807 44.7674C101.807 44.5309 101.862 44.3179 101.972 44.1284C102.081 43.9389 102.233 43.791 102.427 43.6849C102.621 43.5788 102.84 43.5257 103.083 43.5257C103.324 43.5257 103.539 43.578 103.728 43.6826C103.918 43.7873 104.066 43.9343 104.172 44.1238C104.278 44.3133 104.331 44.5324 104.331 44.7811C104.331 44.8205 104.328 44.8766 104.322 44.9493H102.385C102.419 45.1282 102.508 45.27 102.651 45.3746C102.794 45.4792 102.972 45.5315 103.185 45.5315C103.456 45.5315 103.68 45.4436 103.855 45.2677L104.165 45.6179C104.054 45.7483 103.914 45.8469 103.744 45.9136ZM103.781 44.5718H102.381C102.408 44.3929 102.486 44.2497 102.614 44.142C102.742 44.0344 102.898 43.9806 103.083 43.9806C103.271 43.9806 103.428 44.0351 103.555 44.1443C103.681 44.2535 103.757 44.396 103.781 44.5718ZM108.443 45.8908C108.223 45.9818 107.98 46.0273 107.715 46.0273C107.388 46.0273 107.093 45.9568 106.83 45.8158C106.566 45.6748 106.36 45.48 106.21 45.2313C106.061 44.9827 105.986 44.7022 105.986 44.3899C105.986 44.0776 106.062 43.7971 106.213 43.5485C106.364 43.2998 106.571 43.105 106.834 42.964C107.098 42.823 107.393 42.7525 107.72 42.7525C107.985 42.7525 108.227 42.798 108.445 42.889C108.664 42.9799 108.849 43.1118 109 43.2847L108.612 43.644C108.378 43.3953 108.089 43.271 107.747 43.271C107.526 43.271 107.327 43.3188 107.151 43.4143C106.975 43.5098 106.838 43.6425 106.74 43.8123C106.641 43.9821 106.592 44.1746 106.592 44.3899C106.592 44.6052 106.641 44.7977 106.74 44.9675C106.838 45.1373 106.975 45.27 107.151 45.3655C107.327 45.461 107.526 45.5088 107.747 45.5088C108.089 45.5088 108.378 45.3829 108.612 45.1313L109 45.4951C108.849 45.668 108.663 45.7999 108.443 45.8908ZM110.267 46.0136C110.452 46.0136 110.61 45.9856 110.741 45.9295C110.871 45.8734 110.972 45.7923 111.043 45.6862V45.9818H111.589V44.5582C111.589 44.2125 111.492 43.954 111.3 43.7827C111.107 43.6114 110.829 43.5257 110.465 43.5257C110.262 43.5257 110.069 43.5515 109.888 43.603C109.706 43.6546 109.55 43.7289 109.421 43.8259L109.647 44.2398C109.74 44.164 109.853 44.1049 109.987 44.0624C110.121 44.02 110.257 43.9987 110.396 43.9987C110.6 43.9987 110.753 44.0442 110.856 44.1352C110.959 44.2262 111.011 44.3565 111.011 44.5264V44.5627H110.373C110.019 44.5627 109.759 44.6287 109.594 44.7606C109.429 44.8925 109.347 45.0676 109.347 45.2859C109.347 45.4254 109.385 45.5505 109.46 45.6612C109.536 45.7718 109.643 45.8582 109.781 45.9204C109.92 45.9826 110.082 46.0136 110.267 46.0136ZM110.04 45.5088C110.123 45.5694 110.239 45.5998 110.387 45.5998C110.532 45.5998 110.66 45.5672 110.773 45.502C110.885 45.4368 110.965 45.3435 111.011 45.2222V44.9402H110.415C110.082 44.9402 109.915 45.0479 109.915 45.2632C109.915 45.3663 109.957 45.4481 110.04 45.5088ZM112.906 45.9818V44.8038C112.906 44.5612 112.969 44.3755 113.096 44.2466C113.222 44.1178 113.398 44.0533 113.623 44.0533C113.663 44.0533 113.707 44.0579 113.757 44.067V43.5257C113.338 43.5257 113.045 43.6531 112.878 43.9078V43.553H112.328V45.9818H112.906ZM116.003 45.9136C115.834 45.9803 115.643 46.0136 115.43 46.0136C115.159 46.0136 114.92 45.9606 114.714 45.8545C114.507 45.7483 114.348 45.6005 114.235 45.411C114.123 45.2215 114.066 45.007 114.066 44.7674C114.066 44.5309 114.121 44.3179 114.231 44.1284C114.34 43.9389 114.492 43.791 114.686 43.6849C114.88 43.5788 115.099 43.5257 115.342 43.5257C115.583 43.5257 115.798 43.578 115.987 43.6826C116.177 43.7873 116.325 43.9343 116.431 44.1238C116.537 44.3133 116.59 44.5324 116.59 44.7811C116.59 44.8205 116.587 44.8766 116.581 44.9493H114.644C114.678 45.1282 114.767 45.27 114.91 45.3746C115.053 45.4792 115.231 45.5315 115.444 45.5315C115.715 45.5315 115.939 45.4436 116.114 45.2677L116.424 45.6179C116.313 45.7483 116.173 45.8469 116.003 45.9136ZM116.04 44.5718H114.64C114.667 44.3929 114.745 44.2497 114.873 44.142C115.001 44.0344 115.157 43.9806 115.342 43.9806C115.53 43.9806 115.687 44.0351 115.814 44.1443C115.94 44.2535 116.016 44.396 116.04 44.5718ZM117.598 45.9068C117.524 45.978 117.435 46.0136 117.33 46.0136C117.225 46.0136 117.136 45.978 117.062 45.9068C116.988 45.8355 116.951 45.7453 116.951 45.6361C116.951 45.5239 116.987 45.433 117.059 45.3632C117.132 45.2935 117.222 45.2586 117.33 45.2586C117.438 45.2586 117.528 45.2935 117.6 45.3632C117.673 45.433 117.709 45.5239 117.709 45.6361C117.709 45.7453 117.672 45.8355 117.598 45.9068Z" fill="#2E2E2E"/>
<path fill-rule="evenodd" clip-rule="evenodd" d="M88.0925 45.9818V44.026H88.7535V43.5712H88.074V43.4257C88.074 43.1649 88.1957 43.0345 88.4392 43.0345C88.5532 43.0345 88.6595 43.0679 88.7581 43.1346L88.9199 42.707C88.7936 42.6191 88.6194 42.5751 88.3976 42.5751C88.1171 42.5751 87.8999 42.6502 87.7458 42.8003C87.5917 42.9504 87.5147 43.1558 87.5147 43.4166V43.5712H87.1079V44.026H87.5147V45.9818H88.0925ZM63.1124 45.9818V44.7538C63.1124 44.5173 63.174 44.3361 63.2973 44.2102C63.4205 44.0844 63.5885 44.0215 63.8011 44.0215C63.9891 44.0215 64.1339 44.0753 64.2356 44.183C64.3373 44.2906 64.3882 44.4505 64.3882 44.6628V45.9818H64.966V44.59C64.966 44.2383 64.872 43.973 64.684 43.7941C64.496 43.6152 64.2464 43.5257 63.9352 43.5257C63.7626 43.5257 63.6062 43.5523 63.466 43.6053C63.3258 43.6584 63.2079 43.7349 63.1124 43.835V42.607H62.5345V45.9818H63.1124ZM61.0646 45.9818V43.2983H62.137V42.798H59.3912V43.2983H60.4637V45.9818H61.0646ZM67.4344 45.9136C67.2649 45.9803 67.0739 46.0136 66.8612 46.0136C66.59 46.0136 66.3512 45.9606 66.1447 45.8545C65.9383 45.7483 65.7788 45.6005 65.6663 45.411C65.5538 45.2215 65.4976 45.007 65.4976 44.7674C65.4976 44.5309 65.5523 44.3179 65.6617 44.1284C65.7711 43.9389 65.9229 43.791 66.117 43.6849C66.3112 43.5788 66.53 43.5257 66.7734 43.5257C67.0138 43.5257 67.2287 43.578 67.4182 43.6826C67.6078 43.7873 67.7557 43.9343 67.862 44.1238C67.9683 44.3133 68.0215 44.5324 68.0215 44.7811C68.0215 44.8205 68.0184 44.8766 68.0122 44.9493H66.0754C66.1093 45.1282 66.1979 45.27 66.3412 45.3746C66.4845 45.4792 66.6625 45.5315 66.8751 45.5315C67.1463 45.5315 67.3697 45.4436 67.5454 45.2677L67.8551 45.6179C67.7441 45.7483 67.6039 45.8469 67.4344 45.9136ZM67.4714 44.5718H66.0708C66.0985 44.3929 66.1763 44.2497 66.3042 44.142C66.4321 44.0344 66.5885 43.9806 66.7734 43.9806C66.9614 43.9806 67.1186 44.0351 67.2449 44.1443C67.3713 44.2535 67.4468 44.396 67.4714 44.5718ZM70.5084 44.6173V45.9818H69.9075V42.798H70.5084V44.1125H72.1817V42.798H72.7827V45.9818H72.1817V44.6173H70.5084ZM74.7565 46.0136C74.9691 46.0136 75.1602 45.9803 75.3297 45.9136C75.4992 45.8469 75.6394 45.7483 75.7503 45.6179L75.4406 45.2677C75.265 45.4436 75.0416 45.5315 74.7704 45.5315C74.5577 45.5315 74.3798 45.4792 74.2365 45.3746C74.0932 45.27 74.0046 45.1282 73.9707 44.9493H75.9075C75.9137 44.8766 75.9167 44.8205 75.9167 44.7811C75.9167 44.5324 75.8636 44.3133 75.7573 44.1238C75.651 43.9343 75.503 43.7873 75.3135 43.6826C75.124 43.578 74.909 43.5257 74.6687 43.5257C74.4252 43.5257 74.2064 43.5788 74.0123 43.6849C73.8181 43.791 73.6664 43.9389 73.557 44.1284C73.4476 44.3179 73.3929 44.5309 73.3929 44.7674C73.3929 45.007 73.4491 45.2215 73.5616 45.411C73.6741 45.6005 73.8335 45.7483 74.04 45.8545C74.2465 45.9606 74.4853 46.0136 74.7565 46.0136ZM73.966 44.5718H75.3667C75.342 44.396 75.2665 44.2535 75.1402 44.1443C75.0138 44.0351 74.8566 43.9806 74.6687 43.9806C74.4838 43.9806 74.3274 44.0344 74.1995 44.142C74.0716 44.2497 73.9938 44.3929 73.966 44.5718ZM77.2157 46.0136C77.4006 46.0136 77.5585 45.9856 77.6895 45.9295C77.8205 45.8734 77.9214 45.7923 77.9923 45.6862V45.9818H78.5377V44.5582C78.5377 44.2125 78.4414 43.954 78.2488 43.7827C78.0562 43.6114 77.7781 43.5257 77.4144 43.5257C77.2111 43.5257 77.0184 43.5515 76.8366 43.603C76.6548 43.6546 76.4992 43.7289 76.3698 43.8259L76.5963 44.2398C76.6887 44.164 76.802 44.1049 76.936 44.0624C77.0701 44.02 77.2064 43.9987 77.3451 43.9987C77.5485 43.9987 77.7018 44.0442 77.805 44.1352C77.9083 44.2262 77.9599 44.3565 77.9599 44.5264V44.5627H77.322C76.9676 44.5627 76.708 44.6287 76.5431 44.7606C76.3782 44.8925 76.2958 45.0676 76.2958 45.2859C76.2958 45.4254 76.3335 45.5505 76.409 45.6612C76.4845 45.7718 76.5916 45.8582 76.7303 45.9204C76.869 45.9826 77.0308 46.0136 77.2157 46.0136ZM76.9892 45.5088C77.0724 45.5694 77.1879 45.5998 77.3359 45.5998C77.4807 45.5998 77.6094 45.5672 77.7218 45.502C77.8343 45.4368 77.9137 45.3435 77.9599 45.2222V44.9402H77.3636C77.0308 44.9402 76.8644 45.0479 76.8644 45.2632C76.8644 45.3663 76.906 45.4481 76.9892 45.5088ZM79.8551 45.9818V44.8038C79.8551 44.5612 79.9183 44.3755 80.0447 44.2466C80.171 44.1178 80.3467 44.0533 80.5716 44.0533C80.6117 44.0533 80.6564 44.0579 80.7057 44.067V43.5257C80.2866 43.5257 79.9938 43.6531 79.8274 43.9078V43.553H79.2773V45.9818H79.8551ZM82.4553 45.9727C82.3582 46 82.2558 46.0136 82.1479 46.0136C81.8767 46.0136 81.6672 45.9439 81.5192 45.8044C81.3713 45.6649 81.2974 45.4618 81.2974 45.195V44.026H80.8906V43.5712H81.2974V43.0163H81.8752V43.5712H82.5362V44.026H81.8752V45.1813C81.8752 45.2996 81.9045 45.3898 81.963 45.4519C82.0216 45.5141 82.1063 45.5452 82.2172 45.5452C82.3467 45.5452 82.4545 45.5118 82.5408 45.4451L82.7026 45.8499C82.6348 45.9045 82.5524 45.9454 82.4553 45.9727ZM85.5639 46.0136C85.8166 46.0136 86.0431 45.9606 86.2435 45.8545C86.4438 45.7483 86.6002 45.6005 86.7126 45.411C86.8251 45.2215 86.8814 45.007 86.8814 44.7674C86.8814 44.5279 86.8251 44.3141 86.7126 44.1261C86.6002 43.9381 86.4438 43.791 86.2435 43.6849C86.0431 43.5788 85.8166 43.5257 85.5639 43.5257C85.3143 43.5257 85.0894 43.5788 84.8891 43.6849C84.6887 43.791 84.5324 43.9381 84.4199 44.1261C84.3074 44.3141 84.2512 44.5279 84.2512 44.7674C84.2512 45.007 84.3074 45.2215 84.4199 45.411C84.5324 45.6005 84.6887 45.7483 84.8891 45.8545C85.0894 45.9606 85.3143 46.0136 85.5639 46.0136ZM85.0393 45.3178C85.1764 45.4572 85.3513 45.527 85.5639 45.527C85.7766 45.527 85.9522 45.4572 86.0909 45.3178C86.2296 45.1783 86.2989 44.9948 86.2989 44.7674C86.2989 44.54 86.2296 44.3565 86.0909 44.2171C85.9522 44.0776 85.7766 44.0078 85.5639 44.0078C85.3513 44.0078 85.1764 44.0776 85.0393 44.2171C84.9022 44.3565 84.8336 44.54 84.8336 44.7674C84.8336 44.9948 84.9022 45.1783 85.0393 45.3178ZM91.074 44.6173V45.9818H90.4731V42.798H91.074V44.1125H92.7473V42.798H93.3483V45.9818H92.7473V44.6173H91.074ZM95.2712 46.0136C95.5239 46.0136 95.7504 45.9606 95.9507 45.8545C96.1511 45.7483 96.3074 45.6005 96.4199 45.411C96.5324 45.2215 96.5887 45.007 96.5887 44.7674C96.5887 44.5279 96.5324 44.3141 96.4199 44.1261C96.3074 43.9381 96.1511 43.791 95.9507 43.6849C95.7504 43.5788 95.5239 43.5257 95.2712 43.5257C95.0216 43.5257 94.7967 43.5788 94.5964 43.6849C94.396 43.791 94.2396 43.9381 94.1272 44.1261C94.0147 44.3141 93.9584 44.5279 93.9584 44.7674C93.9584 45.007 94.0147 45.2215 94.1272 45.411C94.2396 45.6005 94.396 45.7483 94.5964 45.8545C94.7967 45.9606 95.0216 46.0136 95.2712 46.0136ZM94.7466 45.3178C94.8837 45.4572 95.0586 45.527 95.2712 45.527C95.4839 45.527 95.6595 45.4572 95.7982 45.3178C95.9369 45.1783 96.0062 44.9948 96.0062 44.7674C96.0062 44.54 95.9369 44.3565 95.7982 44.2171C95.6595 44.0776 95.4839 44.0078 95.2712 44.0078C95.0586 44.0078 94.8837 44.0776 94.7466 44.2171C94.6094 44.3565 94.5409 44.54 94.5409 44.7674C94.5409 44.9948 94.6094 45.1783 94.7466 45.3178ZM97.7212 45.9818V44.7492C97.7212 44.5127 97.779 44.3323 97.8945 44.208C98.0101 44.0837 98.1665 44.0215 98.3637 44.0215C98.5424 44.0215 98.6796 44.0753 98.7751 44.183C98.8706 44.2906 98.9184 44.4505 98.9184 44.6628V45.9818H99.4962V44.7492C99.4962 44.5157 99.5548 44.3361 99.6719 44.2102C99.789 44.0844 99.9446 44.0215 100.139 44.0215C100.317 44.0215 100.455 44.0753 100.55 44.183C100.646 44.2906 100.693 44.4505 100.693 44.6628V45.9818H101.271V44.59C101.271 44.2353 101.18 43.9692 100.999 43.7918C100.817 43.6144 100.57 43.5257 100.259 43.5257C100.065 43.5257 99.8876 43.5614 99.7273 43.6326C99.5671 43.7039 99.4361 43.8032 99.3344 43.9305C99.2512 43.7971 99.138 43.6963 98.9947 43.6281C98.8514 43.5598 98.6873 43.5257 98.5024 43.5257C98.3329 43.5257 98.1788 43.5545 98.0401 43.6121C97.9015 43.6698 97.7859 43.7531 97.6934 43.8623V43.553H97.1434V45.9818H97.7212ZM103.744 45.9136C103.575 45.9803 103.384 46.0136 103.171 46.0136C102.9 46.0136 102.661 45.9606 102.455 45.8545C102.248 45.7483 102.089 45.6005 101.976 45.411C101.864 45.2215 101.807 45.007 101.807 44.7674C101.807 44.5309 101.862 44.3179 101.972 44.1284C102.081 43.9389 102.233 43.791 102.427 43.6849C102.621 43.5788 102.84 43.5257 103.083 43.5257C103.324 43.5257 103.539 43.578 103.728 43.6826C103.918 43.7873 104.066 43.9343 104.172 44.1238C104.278 44.3133 104.331 44.5324 104.331 44.7811C104.331 44.8205 104.328 44.8766 104.322 44.9493H102.385C102.419 45.1282 102.508 45.27 102.651 45.3746C102.794 45.4792 102.972 45.5315 103.185 45.5315C103.456 45.5315 103.68 45.4436 103.855 45.2677L104.165 45.6179C104.054 45.7483 103.914 45.8469 103.744 45.9136ZM103.781 44.5718H102.381C102.408 44.3929 102.486 44.2497 102.614 44.142C102.742 44.0344 102.898 43.9806 103.083 43.9806C103.271 43.9806 103.428 44.0351 103.555 44.1443C103.681 44.2535 103.757 44.396 103.781 44.5718ZM108.443 45.8908C108.223 45.9818 107.98 46.0273 107.715 46.0273C107.388 46.0273 107.093 45.9568 106.83 45.8158C106.566 45.6748 106.36 45.48 106.21 45.2313C106.061 44.9827 105.986 44.7022 105.986 44.3899C105.986 44.0776 106.062 43.7971 106.213 43.5485C106.364 43.2998 106.571 43.105 106.834 42.964C107.098 42.823 107.393 42.7525 107.72 42.7525C107.985 42.7525 108.227 42.798 108.445 42.889C108.664 42.9799 108.849 43.1118 109 43.2847L108.612 43.644C108.378 43.3953 108.089 43.271 107.747 43.271C107.526 43.271 107.327 43.3188 107.151 43.4143C106.975 43.5098 106.838 43.6425 106.74 43.8123C106.641 43.9821 106.592 44.1746 106.592 44.3899C106.592 44.6052 106.641 44.7977 106.74 44.9675C106.838 45.1373 106.975 45.27 107.151 45.3655C107.327 45.461 107.526 45.5088 107.747 45.5088C108.089 45.5088 108.378 45.3829 108.612 45.1313L109 45.4951C108.849 45.668 108.663 45.7999 108.443 45.8908ZM110.267 46.0136C110.452 46.0136 110.61 45.9856 110.741 45.9295C110.871 45.8734 110.972 45.7923 111.043 45.6862V45.9818H111.589V44.5582C111.589 44.2125 111.492 43.954 111.3 43.7827C111.107 43.6114 110.829 43.5257 110.465 43.5257C110.262 43.5257 110.069 43.5515 109.888 43.603C109.706 43.6546 109.55 43.7289 109.421 43.8259L109.647 44.2398C109.74 44.164 109.853 44.1049 109.987 44.0624C110.121 44.02 110.257 43.9987 110.396 43.9987C110.6 43.9987 110.753 44.0442 110.856 44.1352C110.959 44.2262 111.011 44.3565 111.011 44.5264V44.5627H110.373C110.019 44.5627 109.759 44.6287 109.594 44.7606C109.429 44.8925 109.347 45.0676 109.347 45.2859C109.347 45.4254 109.385 45.5505 109.46 45.6612C109.536 45.7718 109.643 45.8582 109.781 45.9204C109.92 45.9826 110.082 46.0136 110.267 46.0136ZM110.04 45.5088C110.123 45.5694 110.239 45.5998 110.387 45.5998C110.532 45.5998 110.66 45.5672 110.773 45.502C110.885 45.4368 110.965 45.3435 111.011 45.2222V44.9402H110.415C110.082 44.9402 109.915 45.0479 109.915 45.2632C109.915 45.3663 109.957 45.4481 110.04 45.5088ZM112.906 45.9818V44.8038C112.906 44.5612 112.969 44.3755 113.096 44.2466C113.222 44.1178 113.398 44.0533 113.623 44.0533C113.663 44.0533 113.707 44.0579 113.757 44.067V43.5257C113.338 43.5257 113.045 43.6531 112.878 43.9078V43.553H112.328V45.9818H112.906ZM116.003 45.9136C115.834 45.9803 115.643 46.0136 115.43 46.0136C115.159 46.0136 114.92 45.9606 114.714 45.8545C114.507 45.7483 114.348 45.6005 114.235 45.411C114.123 45.2215 114.066 45.007 114.066 44.7674C114.066 44.5309 114.121 44.3179 114.231 44.1284C114.34 43.9389 114.492 43.791 114.686 43.6849C114.88 43.5788 115.099 43.5257 115.342 43.5257C115.583 43.5257 115.798 43.578 115.987 43.6826C116.177 43.7873 116.325 43.9343 116.431 44.1238C116.537 44.3133 116.59 44.5324 116.59 44.7811C116.59 44.8205 116.587 44.8766 116.581 44.9493H114.644C114.678 45.1282 114.767 45.27 114.91 45.3746C115.053 45.4792 115.231 45.5315 115.444 45.5315C115.715 45.5315 115.939 45.4436 116.114 45.2677L116.424 45.6179C116.313 45.7483 116.173 45.8469 116.003 45.9136ZM116.04 44.5718H114.64C114.667 44.3929 114.745 44.2497 114.873 44.142C115.001 44.0344 115.157 43.9806 115.342 43.9806C115.53 43.9806 115.687 44.0351 115.814 44.1443C115.94 44.2535 116.016 44.396 116.04 44.5718ZM117.598 45.9068C117.524 45.978 117.435 46.0136 117.33 46.0136C117.225 46.0136 117.136 45.978 117.062 45.9068C116.988 45.8355 116.951 45.7453 116.951 45.6361C116.951 45.5239 116.987 45.433 117.059 45.3632C117.132 45.2935 117.222 45.2586 117.33 45.2586C117.438 45.2586 117.528 45.2935 117.6 45.3632C117.673 45.433 117.709 45.5239 117.709 45.6361C117.709 45.7453 117.672 45.8355 117.598 45.9068Z" fill="#2E2E2E"/>
<path fill-rule="evenodd" clip-rule="evenodd" d="M33.9393 10.3893C33.9393 4.64405 29.2194 0 23.3805 0C17.5415 0 12.8217 4.64405 12.8217 10.3893C12.8217 16.1105 17.5415 20.7785 23.3805 20.7785C29.2194 20.7785 33.9393 16.1345 33.9393 10.3893ZM32.2119 10.3893C32.2119 15.1769 28.2706 19.0789 23.3805 19.0789C18.4903 19.0789 14.549 15.2009 14.549 10.3893C14.549 5.57765 18.4903 1.69963 23.3805 1.69963C28.2463 1.69963 32.2119 5.57765 32.2119 10.3893Z" fill="#FF6200"/>
<path d="M11.605 14.7221C4.47655 18.8635 0.0729872 26.3801 0 34.5192H1.75169C1.82468 27.1222 5.76599 20.2758 12.1645 16.3978C11.9456 15.8472 11.7509 15.2966 11.605 14.7221Z" fill="#FF6200"/>
<path d="M35.0342 16.3978C39.9973 19.3901 43.525 24.2017 44.8631 29.7794H46.6391C45.2524 23.4596 41.2381 18.0256 35.5937 14.7221C35.4478 15.2966 35.2531 15.8472 35.0342 16.3978Z" fill="#FF6200"/>
<path d="M13.6238 18.9352C8.12547 22.2866 4.76806 28.1755 4.69507 34.5431H6.44676C6.51975 28.6782 9.6582 23.2681 14.7673 20.2519C14.3537 19.8449 13.9644 19.3901 13.6238 18.9352Z" fill="#FF6200"/>
<path d="M32.4302 20.2519C36.0552 22.4063 38.7557 25.7816 39.9965 29.7793H41.7969C40.5318 25.2789 37.5879 21.4009 33.5736 18.9352C33.233 19.3901 32.8438 19.8449 32.4302 20.2519Z" fill="#FF6200"/>
<path d="M17.1279 22.1191C12.3594 24.489 9.31823 29.2767 9.24524 34.5431H10.9969C11.0699 29.4442 14.33 24.8959 19.1715 23.1006C18.4659 22.8372 17.7847 22.5021 17.1279 22.1191Z" fill="#FF6200"/>
<path d="M28.0029 23.1006C31.19 24.2735 33.7689 26.6913 35.1313 29.7554H37.0047C35.7639 26.4519 33.2823 23.723 30.0466 22.1191C29.3897 22.5021 28.7085 22.8372 28.0029 23.1006Z" fill="#FF6200"/>
<path d="M23.6718 25.7577C26.6399 25.7577 29.4134 27.2658 30.9705 29.7554H32.9655C30.4839 24.7044 24.3287 22.5979 19.1952 25.0396C14.0618 27.4813 11.9209 33.5377 14.4024 38.5887C15.8135 41.4613 18.514 43.4961 21.6768 44.1185V42.371C17.8085 41.4853 15.108 38.086 15.108 34.184C15.108 29.54 18.952 25.7577 23.6718 25.7577Z" fill="#FF6200"/>
</svg>
